<?xml version="1.0" encoding="UTF-8"?>
<svg version="1.1" xmlns="http://www.w3.org/2000/svg" width="1279" height="1280">
<path d="M0 0 C1.72669922 0.05994141 1.72669922 0.05994141 3.48828125 0.12109375 C19.46732026 0.78763765 33.76463959 2.8812514 45.625 14.4375 C53.81117067 23.34597985 56.34237537 33.89566507 55.96875 45.8828125 C55.16434083 56.42631839 51.57831484 65.73525849 46.4375 74.9375 C44.23352378 79.1418723 44.36271016 83.1025219 44.75 87.75 C46.4 88.41 48.05 89.07 49.75 89.75 C49.4375 91.6875 49.4375 91.6875 48.75 93.75 C45.75 94.75 45.75 94.75 37.75 94.75 C37.09 105.31 36.43 115.87 35.75 126.75 C38.10898437 127.31589844 40.46796875 127.88179687 42.8984375 128.46484375 C45.17885257 129.01365589 47.45906427 129.56330541 49.73925781 130.11303711 C51.32596087 130.49509936 52.91287441 130.87628858 54.5 131.2565918 C56.77920329 131.80288834 59.05763506 132.35230404 61.3359375 132.90234375 C62.40320572 133.15708717 62.40320572 133.15708717 63.49203491 133.41697693 C68.52225659 134.63612829 68.52225659 134.63612829 70.75 135.75 C70.82031166 139.75776434 70.86502812 143.20674221 70.03125 147.14453125 C69.67767275 151.6771952 70.67708064 153.12549292 73.1875 156.875 C77.65800755 163.81568966 81.68761782 170.95960409 85.63903809 178.20321655 C90.6473427 187.38321325 95.71034891 196.51336486 101.08911133 205.48291016 C104.70144671 211.55672161 108.03488663 217.77333953 111.375 224 C115.26788928 231.25676212 119.25651088 238.34149818 123.6640625 245.296875 C126.54368306 249.95584319 129.08719996 254.80685651 131.6875 259.625 C135.09187219 265.92941254 138.52143705 272.19337105 142.25 278.3125 C146.00144454 284.48409016 149.68546584 290.69182805 153.3125 296.9375 C153.85003906 297.84765869 154.38757813 298.75781738 154.94140625 299.69555664 C155.43640625 300.55270264 155.93140625 301.40984863 156.44140625 302.29296875 C156.88685791 303.05633545 157.33230957 303.81970215 157.79125977 304.60620117 C158.75 306.75 158.75 306.75 158.75 310.75 C147.22678349 313.51322029 135.70390133 315.9992204 124.0234375 318.00390625 C108.53105782 320.71972168 93.13736651 323.85973675 77.73956299 327.06134033 C74.86240994 327.65819699 71.98423462 328.25004402 69.10606194 328.84196091 C66.31591381 329.4163301 63.52633878 329.99344184 60.73694229 330.57144928 C58.77949442 330.97665225 56.82162047 331.37979519 54.86373901 331.78289795 C53.69295807 332.02695374 52.52217712 332.27100952 51.31591797 332.52246094 C50.28562469 332.73610291 49.25533142 332.94974487 48.19381714 333.16986084 C45.76182612 333.64886451 45.76182612 333.64886451 43.75 334.75 C43.99758057 335.49161377 44.24516113 336.23322754 44.50024414 336.99731445 C45.61357485 340.34938802 46.71317857 343.70580735 47.8125 347.0625 C48.39741211 348.81336914 48.39741211 348.81336914 48.99414062 350.59960938 C49.35830078 351.71787109 49.72246094 352.83613281 50.09765625 353.98828125 C50.43804932 355.01993408 50.77844238 356.05158691 51.12915039 357.11450195 C51.75 359.75 51.75 359.75 50.75 362.75 C48.11 362.75 45.47 362.75 42.75 362.75 C42.85164963 363.3635434 42.95329926 363.97708679 43.05802917 364.60922241 C51.7087098 416.85383438 51.7087098 416.85383438 54.60757446 435.90679932 C54.82696916 437.34030245 55.05023803 438.77321816 55.2774353 440.20550537 C55.58516698 442.15224084 55.87709422 444.10145578 56.16796875 446.05078125 C56.33063232 447.11466064 56.4932959 448.17854004 56.66088867 449.2746582 C56.69029541 450.091521 56.71970215 450.90838379 56.75 451.75 C56.09 452.41 55.43 453.07 54.75 453.75 C54.45231607 456.08228541 54.29302576 458.30833762 54.20703125 460.65234375 C54.17124466 461.43004623 54.13545807 462.20774872 54.09858704 463.00901794 C53.96993252 465.92228489 53.85923373 468.83594017 53.75 471.75 C53.70373474 472.93861633 53.65746948 474.12723267 53.60980225 475.35186768 C53.26331 484.29762925 52.93971758 493.244147 52.62051392 502.19091797 C51.70600146 527.81646716 50.73817518 553.43920466 49.6640625 579.05859375 C49.61826113 580.15348177 49.57245975 581.24836979 49.52527046 582.37643623 C49.07342323 593.17453845 48.61819158 603.97248257 48.15322113 614.77002811 C47.98026937 618.80168751 47.81014344 622.83346318 47.64059067 626.8652668 C47.56154545 628.72843607 47.48122199 630.59155168 47.39944839 632.4546032 C47.1809283 637.43581781 46.98248191 642.41676224 46.82574844 647.40032959 C46.77459541 648.98706539 46.71777117 650.57362705 46.65569687 652.15997314 C46.56948999 654.47834258 46.51089524 656.79585831 46.4597168 659.11523438 C46.43014043 659.79734734 46.40056406 660.4794603 46.37009144 661.18224335 C46.26859774 668.9202849 50.8676647 673.27916892 55.75 678.75 C57.43700207 680.95716104 59.03205775 683.22436822 60.625 685.5 C61.0365332 686.07814453 61.44806641 686.65628906 61.87207031 687.25195312 C65.56936008 692.44922111 69.17412197 697.70951982 72.76708984 702.97924805 C76.0814987 707.82643769 79.52533974 712.55801827 83.09375 717.22265625 C88.20268206 725.01859739 88.55968476 732.63930107 89.2421875 741.76953125 C89.36446568 743.28547296 89.4878541 744.80132547 89.61227417 746.3170929 C89.87252828 749.51284323 90.125645 752.7090426 90.3729248 755.90582275 C90.73412941 760.57035332 91.11324308 765.23327962 91.49707031 769.89599609 C92.23234482 778.85535839 92.9485924 787.81619213 93.66278458 796.77725601 C94.26198558 804.28858979 94.86480207 811.79963508 95.46701241 819.31072807 C95.62763995 821.31437216 95.7882167 823.31802031 95.94874382 825.32167244 C97.3342161 842.61374196 98.73283488 859.90472865 100.13671875 877.1953125 C100.23755768 878.43747591 100.33839661 879.67963932 100.44229126 880.95944405 C101.44148261 893.26713179 102.44143573 905.57475742 103.4424324 917.88229847 C103.81614808 922.4788115 104.18935744 927.07536558 104.56253052 931.67192268 C104.82789404 934.93737049 105.09409165 938.20274957 105.36035156 941.46812439 C106.06311348 950.10619436 106.76283926 958.74383168 107.38427734 967.38818359 C107.5165699 969.20820137 107.5165699 969.20820137 107.65153503 971.06498718 C107.79914221 973.13017561 107.94162124 975.19574374 108.07661438 977.26179504 C108.79220654 987.32665952 111.0624245 996.09157011 114.7265625 1005.453125 C115.75904842 1008.77914836 115.8289995 1011.29934995 115.75 1014.75 C109.74414062 1017.15234375 103.73828125 1019.5546875 97.73242188 1021.95703125 C97.0820546 1022.21785492 96.43168732 1022.47867859 95.76161194 1022.74740601 C94.425132 1023.2806167 93.08672977 1023.80903134 91.74656677 1024.33291626 C88.48766521 1025.61345335 85.33552066 1026.95005831 82.17797852 1028.47412109 C71.10689872 1033.61825918 60.86417234 1033.4519714 48.8125 1033.125 C46.85746352 1033.09482518 44.90238153 1033.06746281 42.94726562 1033.04296875 C38.21369488 1032.9776548 33.48236701 1032.87456119 28.75 1032.75 C29.63573019 1028.49551594 31.47385349 1025.59110784 34.75 1022.75 C37.84237444 1021.03966031 41.05872631 1019.83158859 44.375 1018.625 C45.2729126 1018.27791992 46.1708252 1017.93083984 47.09594727 1017.57324219 C51.58561523 1015.85166769 56.07323386 1014.35351807 60.6875 1013 C67.44750331 1010.64359506 72.32468537 1005.22182477 77.20556641 1000.17236328 C78.75 998.75 78.75 998.75 80.54052734 997.71435547 C82.5954653 996.60919369 82.5954653 996.60919369 84.75 993.75 C84.74076143 991.11434196 84.74076143 991.11434196 84.12817383 988.13647461 C83.92154617 986.96844803 83.71491852 985.80042145 83.50202942 984.59700012 C82.13288622 977.59315967 80.68812401 970.60962096 79.1875 963.6328125 C78.83605115 961.98554268 78.48493409 960.33820204 78.13412476 958.6907959 C77.20234937 954.31939961 76.26616898 949.94895786 75.32915497 945.57868195 C74.35675823 941.03922074 73.38876222 936.4988215 72.42041016 931.95849609 C70.71048409 923.94370679 68.99751056 915.92957342 67.28286552 907.91579247 C64.8910984 896.73676721 62.50640198 885.55623771 60.125 874.375 C59.92738068 873.44791229 59.72976135 872.52082458 59.52615356 871.56564331 C56.88975116 859.19392748 54.3067691 846.81238251 51.77514648 834.41882324 C49.29940299 822.30478472 46.72402687 810.21314335 44.125 798.125 C40.29482697 780.30679813 36.53346149 762.47702937 32.8828125 744.62109375 C32.36776807 742.10316937 31.85266977 739.58525603 31.33752441 737.06735229 C30.98853483 735.36080459 30.639819 733.65420087 30.29138184 731.94754028 C27.86693548 720.07553808 25.39343418 708.21709509 22.74047852 696.39355469 C19.25585912 680.52442684 17.26764571 664.52678795 15.83984375 648.359375 C15.67009778 646.49183297 15.49979143 644.62434181 15.32897949 642.75689697 C14.86997486 637.72112807 14.41875206 632.68469069 13.96918869 627.64807129 C13.49217347 622.3170872 13.00851742 616.98670523 12.52563477 611.65625 C11.80647755 603.70989379 11.09012468 595.7632918 10.37658596 587.81642914 C9.02964057 572.81736521 7.66301592 557.82014986 6.29121208 542.82334137 C5.59358786 535.19013674 4.89894969 527.55666005 4.2046442 519.92315292 C3.64162573 513.73371902 3.07740658 507.54440045 2.51022339 501.35534668 C1.97515872 495.51441152 1.44456397 489.6730865 0.9172821 483.83144379 C0.72243697 481.6809953 0.52604852 479.530686 0.32798767 477.38053131 C0.05618428 474.42722693 -0.21000237 471.47346608 -0.47485352 468.51953125 C-0.55424195 467.67129665 -0.63363039 466.82306206 -0.71542454 465.94912338 C-1.22737759 460.1476488 -1.25 454.62754353 -1.25 448.75 C-17.09 447.265 -17.09 447.265 -33.25 445.75 C-33.01796875 452.84048828 -33.01796875 452.84048828 -32.78125 460.07421875 C-32.25969957 478.09523023 -32.08914932 496.11711284 -31.96875 514.14453125 C-31.96159721 515.20419232 -31.96159721 515.20419232 -31.95429993 516.28526068 C-31.88476695 526.62998723 -31.82300607 536.97475623 -31.76302338 547.31954193 C-31.72863882 553.2414402 -31.69366156 559.16333471 -31.65782738 565.08522439 C-31.64896542 566.55539845 -31.64019793 568.02557309 -31.63152504 569.49574828 C-31.58414638 577.49724779 -31.52824995 585.49852967 -31.44946289 593.49978638 C-31.42873151 595.64410353 -31.40810706 597.78842164 -31.38759804 599.93274093 C-31.37402201 601.34837144 -31.36024805 602.76400007 -31.34627342 604.1796267 C-31.2606776 613.074007 -31.25776184 621.96257183 -31.34803009 630.85691929 C-31.39314797 635.94418428 -31.39635711 641.03100659 -31.39280701 646.11844444 C-31.40156954 648.4524975 -31.42926382 650.78657981 -31.47865295 653.12012672 C-31.81392443 669.33864126 -28.75641253 680.57099512 -20.5041256 694.57310486 C-18.89652618 697.36355533 -17.56880657 700.20318959 -16.26953125 703.1484375 C-15.89441406 703.98906738 -15.51929688 704.82969727 -15.1328125 705.69580078 C-14.60300781 706.89825439 -14.60300781 706.89825439 -14.0625 708.125 C-7.83365099 722.6362879 -7.83365099 722.6362879 -0.17506409 736.4025116 C1.23941994 739.99197627 1.09905159 743.62005666 1.14477539 747.42700195 C1.17209448 748.75284963 1.17209448 748.75284963 1.19996548 750.1054821 C1.25850328 753.06632077 1.30313428 756.02720107 1.34765625 758.98828125 C1.38616688 761.09867216 1.42545048 763.20904909 1.4654541 765.31941223 C1.57116139 771.03935835 1.66428117 776.75944745 1.7547493 782.4796524 C1.83199224 787.2717963 1.9163555 792.06380487 2.0005331 796.85583115 C2.64137478 833.46729892 3.08787916 870.08058911 3.42163086 906.69604492 C3.45669839 910.52653153 3.49193035 914.35701657 3.52734375 918.1875 C3.54013021 919.57641418 3.54013021 919.57641418 3.55317497 920.99338722 C3.67103405 933.62172954 3.83954664 946.2481536 4.06640625 958.875 C4.09265293 960.36343354 4.11888302 961.85186738 4.14509583 963.34030151 C4.2633297 969.98903458 4.39080155 976.63738121 4.53344727 983.28564453 C4.8586095 999.81575936 4.47724809 1016.23490658 3.75 1032.75 C-0.49365691 1033.94563598 -4.59067528 1033.84020252 -8.96582031 1033.77172852 C-10.2834285 1033.7573172 -10.2834285 1033.7573172 -11.62765503 1033.74261475 C-14.5278942 1033.70966288 -17.42798095 1033.66931594 -20.328125 1033.62890625 C-22.34022486 1033.60460141 -24.35233034 1033.58075804 -26.36444092 1033.55735779 C-31.65810556 1033.49455308 -36.95167055 1033.42547612 -42.24523926 1033.35510254 C-47.64782171 1033.28438652 -53.05047476 1033.2195891 -58.453125 1033.15429688 C-69.05216093 1033.02533108 -79.65110103 1032.88974043 -90.25 1032.75 C-89.57106 1027.48642493 -87.45214097 1025.13122276 -83.68029785 1021.56289673 C-79.53707705 1018.47223381 -75.16253772 1017.51373991 -70.171875 1016.44921875 C-69.12404846 1016.20130081 -68.07622192 1015.95338287 -66.99664307 1015.69795227 C-63.67005469 1014.91722266 -60.33604174 1014.17666787 -57 1013.4375 C-54.77672382 1012.92390019 -52.554059 1012.40764628 -50.33203125 1011.88867188 C-46.21936331 1010.93094011 -42.10358147 1009.99000702 -37.98339844 1009.06518555 C-32.04780958 1007.7231821 -26.14758442 1006.24923932 -20.25 1004.75 C-20.99406625 991.85302017 -22.71213338 979.054817 -24.27734375 966.23828125 C-24.58516103 963.70064158 -24.89273192 961.16297202 -25.20007324 958.62527466 C-25.93760175 952.54085689 -26.67772016 946.45675913 -27.41905153 940.37280369 C-28.27826618 933.3201881 -29.13412362 926.26716624 -29.98985398 919.21412718 C-34.07295439 885.56341589 -38.17508529 851.91500437 -42.28890991 818.26803589 C-44.891284 796.98289354 -47.45941322 775.69398675 -49.99142456 754.40036011 C-55.04433765 711.9125551 -60.36974396 669.48050549 -66.21728516 627.09472656 C-66.65410662 623.92775301 -67.09079777 620.76076154 -67.52734375 617.59375 C-67.63709785 616.79754997 -67.74685196 616.00134995 -67.85993195 615.18102264 C-70.50607587 595.97294068 -73.07599396 576.75473308 -75.64433289 557.53612137 C-80.09444197 524.22707682 -80.09444197 524.22707682 -84.6875 490.9375 C-84.80397888 490.1047757 -84.92045776 489.27205139 -85.04046631 488.41409302 C-86.07303621 481.03465641 -87.11483352 473.65677263 -88.19013977 466.28343201 C-88.48885729 464.22944552 -88.78421775 462.17500624 -89.07836914 460.12036133 C-89.42321979 457.71811228 -89.77440805 455.31675654 -90.13452148 452.91674805 C-92.2188243 438.31310119 -90.67958699 424.21590215 -89.25 409.625 C-88.96154737 406.67029649 -88.6749048 403.71547556 -88.39404297 400.76004028 C-88.22048028 398.93414741 -88.04273008 397.10864542 -87.85986328 395.28366089 C-87.44992098 390.97643141 -87.15213269 386.67899042 -87.04223633 382.35302734 C-87.02171707 381.56117035 -87.00119781 380.76931335 -86.98005676 379.95346069 C-87.48315076 375.84686462 -90.12797836 373.34575228 -92.9375 370.5 C-94.00411135 369.34914839 -95.07051957 368.19810847 -96.13671875 367.046875 C-96.65669434 366.49966797 -97.17666992 365.95246094 -97.71240234 365.38867188 C-104.25 358.42132423 -104.25 358.42132423 -104.25 355.75 C-104.8275 355.51796875 -105.405 355.2859375 -106 355.046875 C-108.81141978 353.42640388 -110.25252857 351.55736872 -112.25 349 C-115.83024216 344.50114308 -119.48923308 340.09898333 -123.25 335.75 C-127.70081598 330.5917415 -132.0481967 325.36891396 -136.3125 320.0546875 C-138.19716625 317.68813306 -138.19716625 317.68813306 -140.5625 315.7578125 C-141.119375 315.09523438 -141.67625 314.43265625 -142.25 313.75 C-141.87150554 309.7907543 -140.41511067 306.89183358 -138.44921875 303.4765625 C-137.88396484 302.4865625 -137.31871094 301.4965625 -136.73632812 300.4765625 C-136.14271484 299.45304687 -135.54910156 298.42953125 -134.9375 297.375 C-134.35548828 296.35921875 -133.77347656 295.3434375 -133.17382812 294.296875 C-132.60470703 293.30429687 -132.03558594 292.31171875 -131.44921875 291.2890625 C-130.62623291 289.85288574 -130.62623291 289.85288574 -129.78662109 288.38769531 C-128.8496305 286.779299 -127.89359391 285.1815614 -126.90478516 283.60449219 C-124.82863079 280.51261671 -124.82863079 280.51261671 -124.46142578 276.94897461 C-125.51772823 274.00342782 -126.90168609 271.3186696 -128.34765625 268.54296875 C-128.65753479 267.94550339 -128.96741333 267.34803802 -129.28668213 266.73246765 C-130.29112637 264.79861324 -131.3016566 262.86801607 -132.3125 260.9375 C-133.00638689 259.60512801 -133.69998979 258.27260808 -134.39331055 256.93994141 C-138.63113092 248.80368631 -142.91471298 240.69293987 -147.25488281 232.61083984 C-149.33131886 228.72796557 -151.38405952 224.83256908 -153.4375 220.9375 C-153.84202393 220.17228027 -154.24654785 219.40706055 -154.66333008 218.61865234 C-155.05673584 217.87180176 -155.4501416 217.12495117 -155.85546875 216.35546875 C-156.25556152 215.61353271 -156.6556543 214.87159668 -157.06787109 214.10717773 C-158.25 211.75 -158.25 211.75 -159.31103516 209.01977539 C-161.26323507 203.97127478 -161.26323507 203.97127478 -165.33276367 200.7277832 C-167.99556505 200.17134082 -170.53303106 199.94946272 -173.25 199.8125 C-174.24966797 199.72371582 -175.24933594 199.63493164 -176.27929688 199.54345703 C-178.45163105 199.3515653 -180.6256572 199.17813797 -182.80078125 199.02099609 C-186.34783175 198.74231362 -189.8717813 198.36445041 -193.40625 197.95703125 C-205.96783753 196.52173246 -218.45688691 195.36546904 -231.10742188 195.21630859 C-235.93237639 195.10665054 -239.37087054 194.9695204 -243.25 191.75 C-244.125 189.625 -244.125 189.625 -244.25 187.75 C-242.17537634 185.67537634 -238.0492558 186.05217661 -235.1875 185.75 C-234.37547119 185.66097412 -233.56344238 185.57194824 -232.72680664 185.48022461 C-227.54678593 184.93211962 -222.3896544 184.56740557 -217.1875 184.3125 C-208.7323232 183.85270187 -200.54858337 182.38301331 -192.25 180.75 C-194.58459167 178.33420514 -196.71718017 176.42656758 -199.5 174.5 C-202.25 171.75 -202.25 171.75 -202.6328125 169.65234375 C-202.625 167.4375 -202.625 167.4375 -202.25 163.75 C-196.48159401 164.54054962 -191.45095338 166.41392219 -186.03125 168.48046875 C-182.34215745 169.83713874 -182.34215745 169.83713874 -178.71875 170.30078125 C-170.81688618 171.60886006 -167.5141149 173.95178398 -162.74609375 180.25756836 C-160.35589823 183.63410672 -158.04154237 187.05497961 -155.76318359 190.5078125 C-153.91265035 193.24987402 -151.88486497 195.78696658 -149.75 198.3125 C-145.89994596 202.92543512 -142.18545957 207.63040835 -138.5 212.375 C-137.90493652 213.14070312 -137.30987305 213.90640625 -136.69677734 214.6953125 C-133.69142973 218.57192778 -130.70401403 222.46111646 -127.7421875 226.37109375 C-121.29154645 234.88438601 -114.83059895 243.19582349 -107.25 250.75 C-107.01128174 249.78497559 -106.77256348 248.81995117 -106.52661133 247.82568359 C-104.2603902 238.69486058 -101.91695272 229.58743833 -99.50018311 220.49536133 C-98.92010806 218.30946187 -98.34381433 216.12258974 -97.76806641 213.93554688 C-95.93216435 206.97716038 -94.06201382 200.03387506 -92.07421875 193.1171875 C-91.74397705 191.95106934 -91.41373535 190.78495117 -91.07348633 189.58349609 C-90.46180793 187.43372599 -89.83634241 185.28780804 -89.1940918 183.14697266 C-85.46812039 169.95261154 -89.74534589 157.7034642 -92.88696289 144.7578125 C-93.44396176 142.45226324 -93.98998886 140.14430844 -94.53515625 137.8359375 C-94.79293602 136.79655533 -94.79293602 136.79655533 -95.05592346 135.73617554 C-96.17548238 130.97193453 -96.40011591 126.64466771 -96.25 121.75 C-84.1969765 119.42191858 -72.16666505 117.40051228 -59.98193359 115.90185547 C-49.33986426 114.56500348 -38.79818022 112.68031845 -28.25 110.75 C-29.10464844 110.68941406 -29.95929688 110.62882812 -30.83984375 110.56640625 C-32.49693359 110.44072266 -32.49693359 110.44072266 -34.1875 110.3125 C-35.84072266 110.19068359 -35.84072266 110.19068359 -37.52734375 110.06640625 C-40.25 109.75 -40.25 109.75 -41.25 108.75 C-41.68471638 101.59516801 -41.21503281 94.42516343 -40.671875 87.2890625 C-40.61817749 86.56233337 -40.56447998 85.83560425 -40.50915527 85.08685303 C-40.28599234 82.08683505 -40.0615211 79.0875179 -39.80273438 76.09033203 C-39.61358857 73.86595825 -39.45299795 71.64096628 -39.296875 69.4140625 C-39.19213867 68.10904785 -39.08740234 66.8040332 -38.97949219 65.45947266 C-39.31925953 60.80024434 -40.69446662 58.60448196 -43.25 54.75 C-45.725 61.185 -45.725 61.185 -48.25 67.75 C-49.9 67.42 -51.55 67.09 -53.25 66.75 C-57.5664018 53.26124438 -55.47549933 39.87187178 -49.6015625 27.19140625 C-43.64091846 15.7256259 -37.78648894 8.73888284 -25.25 4.75 C-24.321875 4.0075 -24.321875 4.0075 -23.375 3.25 C-16.59283355 -1.53741161 -7.84953977 -0.37296156 0 0 Z M-21.25 108.75 C-17.25 109.75 -17.25 109.75 -17.25 109.75 Z M50.75 233.75 C49.089186 241.79139723 47.42871091 249.83286434 45.76865578 257.87441826 C44.99762648 261.60934643 44.22648512 265.34425138 43.45507812 269.07910156 C42.70915332 272.69059858 41.96353534 276.30215882 41.21812057 279.91376114 C40.93519146 281.2843153 40.65215605 282.65484753 40.36900711 284.02535629 C39.49287329 288.26626492 38.62089224 292.50801248 37.75 296.75 C37.54397156 297.74010071 37.33794312 298.73020142 37.12567139 299.75030518 C36.85342743 301.07490753 36.85342743 301.07490753 36.57568359 302.42626953 C36.42038177 303.17554718 36.26507996 303.92482483 36.10507202 304.69680786 C35.27544994 309.4940699 35.03141806 312.67212709 37.75 316.75 C56.15473273 310.69939548 74.45591628 304.43204039 92.68017578 297.85449219 C97.11358459 296.25939584 101.55563471 294.68926341 106 293.125 C106.70358643 292.87717773 107.40717285 292.62935547 108.13208008 292.37402344 C109.67121182 291.83218522 111.21057295 291.29099865 112.75 290.75 C108.00436914 285.0084358 108.00436914 285.0084358 102.75 279.75 C102.09 279.75 101.43 279.75 100.75 279.75 C100.75 279.09 100.75 278.43 100.75 277.75 C99.03353922 276.24688159 99.03353922 276.24688159 96.8125 274.6875 C92.47072297 271.41415399 88.72350861 267.82593951 84.93359375 263.9375 C82.93926837 261.93960695 80.89411153 260.08417065 78.75 258.25 C75.77859791 255.70308392 72.9985599 253.03621141 70.25 250.25 C66.25015595 246.20196506 62.0917525 242.4258955 57.75 238.75 C57.15703125 238.24082031 56.5640625 237.73164063 55.953125 237.20703125 C53.64193582 234.81613198 53.64193582 234.81613198 50.75 233.75 Z " fill="#F08011" transform="translate(682.25,123.25)"/>
<path d="M0 0 C0.02768068 2.39591642 0.04715505 4.7914953 0.0625 7.1875 C0.07087891 7.84169922 0.07925781 8.49589844 0.08789062 9.16992188 C0.11935355 15.80859871 -0.4350068 22.38887891 -1 29 C0.4837915 29.3556604 0.4837915 29.3556604 1.99755859 29.71850586 C5.66205279 30.59755463 9.32576939 31.47980694 12.98925781 32.36303711 C14.57596087 32.74509936 16.16287441 33.12628858 17.75 33.5065918 C20.02920329 34.05288834 22.30763506 34.60230404 24.5859375 35.15234375 C25.29744965 35.3221727 26.00896179 35.49200165 26.74203491 35.66697693 C31.77225659 36.88612829 31.77225659 36.88612829 34 38 C34.07031166 42.00776434 34.11502812 45.45674221 33.28125 49.39453125 C32.92767275 53.9271952 33.92708064 55.37549292 36.4375 59.125 C40.90800755 66.06568966 44.93761782 73.20960409 48.88903809 80.45321655 C53.8973427 89.63321325 58.96034891 98.76336486 64.33911133 107.73291016 C67.95144671 113.80672161 71.28488663 120.02333953 74.625 126.25 C78.51788928 133.50676212 82.50651088 140.59149818 86.9140625 147.546875 C89.79368306 152.20584319 92.33719996 157.05685651 94.9375 161.875 C98.34187219 168.17941254 101.77143705 174.44337105 105.5 180.5625 C109.25144454 186.73409016 112.93546584 192.94182805 116.5625 199.1875 C117.10003906 200.09765869 117.63757813 201.00781738 118.19140625 201.94555664 C118.68640625 202.80270264 119.18140625 203.65984863 119.69140625 204.54296875 C120.13685791 205.30633545 120.58230957 206.06970215 121.04125977 206.85620117 C122 209 122 209 122 213 C110.47678349 215.76322029 98.95390133 218.2492204 87.2734375 220.25390625 C71.78105782 222.96972168 56.38736651 226.10973675 40.98956299 229.31134033 C38.11240994 229.90819699 35.23423462 230.50004402 32.35606194 231.09196091 C29.56591381 231.6663301 26.77633878 232.24344184 23.98694229 232.82144928 C22.02949442 233.22665225 20.07162047 233.62979519 18.11373901 234.03289795 C16.94295807 234.27695374 15.77217712 234.52100952 14.56591797 234.77246094 C13.53562469 234.98610291 12.50533142 235.19974487 11.44381714 235.41986084 C9.01182612 235.89886451 9.01182612 235.89886451 7 237 C7.24758057 237.74161377 7.49516113 238.48322754 7.75024414 239.24731445 C8.86357485 242.59938802 9.96317857 245.95580735 11.0625 249.3125 C11.64741211 251.06336914 11.64741211 251.06336914 12.24414062 252.84960938 C12.60830078 253.96787109 12.97246094 255.08613281 13.34765625 256.23828125 C13.68804932 257.26993408 14.02844238 258.30158691 14.37915039 259.36450195 C15 262 15 262 14 265 C7.08143392 265.77754527 0.20597106 266.20019995 -6.75 266.4375 C-17.2620328 266.84684972 -27.68957668 267.70218207 -38.15722656 268.72509766 C-43.22771144 269.21542452 -48.30100106 269.67272041 -53.375 270.125 C-54.79232422 270.25636353 -54.79232422 270.25636353 -56.23828125 270.39038086 C-58.82422285 270.62063911 -61.41059574 270.81352772 -64 271 C-64.75249023 271.07935791 -65.50498047 271.15871582 -66.28027344 271.24047852 C-68.3828125 271.38671875 -68.3828125 271.38671875 -72 271 C-74.46875 268.76171875 -74.46875 268.76171875 -76.5 265.6875 C-77.61181641 264.05748047 -77.61181641 264.05748047 -78.74609375 262.39453125 C-79.30079346 261.55075928 -79.30079346 261.55075928 -79.86669922 260.68994141 C-81.66381682 258.01013786 -83.62532247 255.45448683 -85.5625 252.875 C-89 248.25146199 -89 248.25146199 -89 246 C-89.66 246 -90.32 246 -91 246 C-92.98046875 243.8046875 -92.98046875 243.8046875 -95.1875 240.875 C-96.29158203 239.44800781 -96.29158203 239.44800781 -97.41796875 237.9921875 C-99.35469365 234.32914732 -99.15386261 232.92004218 -98 229 C-97.32955833 227.16496642 -96.59676728 225.35184768 -95.8125 223.5625 C-93.8076667 218.89996261 -91.86989051 214.2180721 -90 209.5 C-88.18726467 204.9404334 -86.34082332 200.39763034 -84.4375 195.875 C-82.70772287 191.75779885 -81.07935535 187.61467349 -79.5 183.4375 C-77.98239398 179.44728355 -76.37366361 175.55285876 -74.5625 171.6875 C-72.15821484 166.52469331 -70.19131465 161.2497638 -68.23291016 155.9074707 C-66.78126213 151.98186761 -65.22093441 148.16549697 -63.4375 144.375 C-60.47956828 138.08459326 -58.25377386 131.56951105 -56 125 C-56.66 124.38125 -57.32 123.7625 -58 123.125 C-60 121 -60 121 -60 119 C-60.66 119 -61.32 119 -62 119 C-63.41170765 117.40324822 -64.75399468 115.74486398 -66.0625 114.0625 C-69.8055559 109.35642487 -73.74712985 105.1569836 -78.15234375 101.0703125 C-80.27487897 98.69199608 -81.34676075 97.1346085 -82 94 C-80.734375 91.10546875 -80.734375 91.10546875 -78.75 88.1875 C-78.10546875 87.21167969 -77.4609375 86.23585938 -76.796875 85.23046875 C-76.20390625 84.49441406 -75.6109375 83.75835937 -75 83 C-74.34 83 -73.68 83 -73 83 C-72.73050537 82.26716797 -72.46101074 81.53433594 -72.18334961 80.77929688 C-71.03578804 78.08405427 -69.73900356 75.92777611 -68.06640625 73.53125 C-67.2165918 72.30341797 -67.2165918 72.30341797 -66.34960938 71.05078125 C-65.75986328 70.20902344 -65.17011719 69.36726563 -64.5625 68.5 C-63.39584419 66.82381465 -62.23044084 65.14675673 -61.06640625 63.46875 C-60.25453857 62.30279297 -60.25453857 62.30279297 -59.42626953 61.11328125 C-58.28547847 59.42298898 -57.23402555 57.67253443 -56.21484375 55.90625 C-55.81394531 55.2771875 -55.41304687 54.648125 -55 54 C-54.34 54 -53.68 54 -53 54 C-52.79246094 53.35675781 -52.58492187 52.71351563 -52.37109375 52.05078125 C-50.43369141 47.73992305 -47.76385184 44.0531205 -45.0625 40.1875 C-44.48274414 39.34944824 -43.90298828 38.51139648 -43.30566406 37.64794922 C-42.11401241 35.92562491 -40.92048605 34.20459619 -39.72509766 32.48486328 C-37.67646816 29.53397862 -35.64207163 26.57360333 -33.61352539 23.60888672 C-32.70873429 22.29244402 -31.79780167 20.98020017 -30.88061523 19.67236328 C-28.70594385 16.56252384 -26.65078032 13.45158434 -24.7734375 10.15234375 C-19.71922019 1.53751276 -19.71922019 1.53751276 -14.7265625 -0.0234375 C-9.7940734 -0.43355457 -4.94001541 0.04574088 0 0 Z M14 136 C12.339186 144.04139723 10.67871091 152.08286434 9.01865578 160.12441826 C8.24762648 163.85934643 7.47648512 167.59425138 6.70507812 171.32910156 C5.95915332 174.94059858 5.21353534 178.55215882 4.46812057 182.16376114 C4.18519146 183.5343153 3.90215605 184.90484753 3.61900711 186.27535629 C2.74287329 190.51626492 1.87089224 194.75801248 1 199 C0.79397156 199.99010071 0.58794312 200.98020142 0.37567139 202.00030518 C0.10342743 203.32490753 0.10342743 203.32490753 -0.17431641 204.67626953 C-0.32961823 205.42554718 -0.48492004 206.17482483 -0.64492798 206.94680786 C-1.47455006 211.7440699 -1.71858194 214.92212709 1 219 C19.40473273 212.94939548 37.70591628 206.68204039 55.93017578 200.10449219 C60.36358459 198.50939584 64.80563471 196.93926341 69.25 195.375 C69.95358643 195.12717773 70.65717285 194.87935547 71.38208008 194.62402344 C72.92121182 194.08218522 74.46057295 193.54099865 76 193 C71.25436914 187.2584358 71.25436914 187.2584358 66 182 C65.34 182 64.68 182 64 182 C64 181.34 64 180.68 64 180 C62.28353922 178.49688159 62.28353922 178.49688159 60.0625 176.9375 C55.72072297 173.66415399 51.97350861 170.07593951 48.18359375 166.1875 C46.18926837 164.18960695 44.14411153 162.33417065 42 160.5 C39.02859791 157.95308392 36.2485599 155.28621141 33.5 152.5 C29.50015595 148.45196506 25.3417525 144.6758955 21 141 C20.40703125 140.49082031 19.8140625 139.98164063 19.203125 139.45703125 C16.89193582 137.06613198 16.89193582 137.06613198 14 136 Z " fill="#EB671D" transform="translate(719,221)"/>
<path d="M0 0 C12.79525072 0.40464806 25.54934459 1.19177901 38.30648804 2.24227905 C39.89318269 2.37237333 41.48012242 2.49951241 43.06729126 2.62368774 C45.32045416 2.80130956 47.57231689 2.99071334 49.82421875 3.18359375 C51.13479248 3.29243896 52.44536621 3.40128418 53.7956543 3.51342773 C57 4 57 4 60 6 C59.34 6 58.68 6 58 6 C58.02767456 6.77095505 58.05534912 7.5419101 58.0838623 8.33622742 C58.84155329 30.35233459 59.13413329 52.36671321 59.28125 74.39453125 C59.28601852 75.10097196 59.29078705 75.80741267 59.29570007 76.53526068 C59.36523305 86.87998723 59.42699393 97.22475623 59.48697662 107.56954193 C59.52136118 113.4914402 59.55633844 119.41333471 59.59217262 125.33522439 C59.60103458 126.80539845 59.60980207 128.27557309 59.61847496 129.74574828 C59.66585362 137.74724779 59.72175005 145.74852967 59.80053711 153.74978638 C59.82126849 155.89410353 59.84189294 158.03842164 59.86240196 160.18274093 C59.87597799 161.59837144 59.88975195 163.01400007 59.90372658 164.4296267 C59.9893224 173.324007 59.99223816 182.21257183 59.90196991 191.10691929 C59.85685203 196.19418428 59.85364289 201.28100659 59.85719299 206.36844444 C59.84843046 208.7024975 59.82073618 211.03657981 59.77134705 213.37012672 C59.43607557 229.58864126 62.49358747 240.82099512 70.7458744 254.82310486 C72.35347382 257.61355533 73.68119343 260.45318959 74.98046875 263.3984375 C75.35558594 264.23906738 75.73070312 265.07969727 76.1171875 265.94580078 C76.47039062 266.74743652 76.82359375 267.54907227 77.1875 268.375 C83.41634901 282.8862879 83.41634901 282.8862879 91.07493591 296.6525116 C92.48941994 300.24197627 92.34905159 303.87005666 92.39477539 307.67700195 C92.41298812 308.5609004 92.43120085 309.44479885 92.44996548 310.3554821 C92.50850328 313.31632077 92.55313428 316.27720107 92.59765625 319.23828125 C92.63616688 321.34867216 92.67545048 323.45904909 92.7154541 325.56941223 C92.82116139 331.28935835 92.91428117 337.00944745 93.0047493 342.7296524 C93.08199224 347.5217963 93.1663555 352.31380487 93.2505331 357.10583115 C93.89137478 393.71729892 94.33787916 430.33058911 94.67163086 466.94604492 C94.70669839 470.77653153 94.74193035 474.60701657 94.77734375 478.4375 C94.78586805 479.36344278 94.79439236 480.28938557 94.80317497 481.24338722 C94.92103405 493.87172954 95.08954664 506.4981536 95.31640625 519.125 C95.34265293 520.61343354 95.36888302 522.10186738 95.39509583 523.59030151 C95.5133297 530.23903458 95.64080155 536.88738121 95.78344727 543.53564453 C96.1086095 560.06575936 95.72724809 576.48490658 95 593 C90.75634309 594.19563598 86.65932472 594.09020252 82.28417969 594.02172852 C80.9665715 594.0073172 80.9665715 594.0073172 79.62234497 593.99261475 C76.7221058 593.95966288 73.82201905 593.91931594 70.921875 593.87890625 C68.90977514 593.85460141 66.89766966 593.83075804 64.88555908 593.80735779 C59.59189444 593.74455308 54.29832945 593.67547612 49.00476074 593.60510254 C43.60217829 593.53438652 38.19952524 593.4695891 32.796875 593.40429688 C22.19783907 593.27533108 11.59889897 593.13974043 1 593 C1.67894 587.73642493 3.79785903 585.38122276 7.56970215 581.81289673 C11.71292295 578.72223381 16.08746228 577.76373991 21.078125 576.69921875 C22.12595154 576.45130081 23.17377808 576.20338287 24.25335693 575.94795227 C27.57994531 575.16722266 30.91395826 574.42666787 34.25 573.6875 C36.47327618 573.17390019 38.695941 572.65764628 40.91796875 572.13867188 C45.03063669 571.18094011 49.14641853 570.24000702 53.26660156 569.31518555 C59.20219042 567.9731821 65.10241558 566.49923932 71 565 C70.25593375 552.10302017 68.53786662 539.304817 66.97265625 526.48828125 C66.66483897 523.95064158 66.35726808 521.41297202 66.04992676 518.87527466 C65.31239825 512.79085689 64.57227984 506.70675913 63.83094847 500.62280369 C62.97173382 493.5701881 62.11587638 486.51716624 61.26014602 479.46412718 C57.17704561 445.81341589 53.07491471 412.16500437 48.96109009 378.51803589 C46.358716 357.23289354 43.79058678 335.94398675 41.25857544 314.65036011 C36.20566235 272.1625551 30.88025604 229.73050549 25.03271484 187.34472656 C24.59589338 184.17775301 24.15920223 181.01076154 23.72265625 177.84375 C23.61290215 177.04754997 23.50314804 176.25134995 23.39006805 175.43102264 C20.74392413 156.22294068 18.17400604 137.00473308 15.60566711 117.78612137 C11.15685165 84.4768989 11.15685165 84.4768989 6.5625 51.1875 C6.44602112 50.35743439 6.32954224 49.52736877 6.20953369 48.67214966 C5.57559709 44.15927036 4.93904391 39.64676362 4.30145264 35.13439941 C3.58806268 30.08332696 2.876625 25.031988 2.17163086 19.97973633 C1.82197204 17.47403028 1.47013175 14.96862707 1.11547852 12.46362305 C0.96651123 11.394104 0.81754395 10.32458496 0.6640625 9.22265625 C0.53467285 8.30234619 0.4052832 7.38203613 0.27197266 6.43383789 C0 4 0 4 0 0 Z " fill="#ACA3CE" transform="translate(591,563)"/>
<path d="M0 0 C6.95108496 0.02419387 13.80411978 0.4249473 20.72387695 1.06811523 C21.7209668 1.15512695 22.71805664 1.24213867 23.74536133 1.33178711 C27.55274652 1.67376782 31.31575088 2.03097791 35.0871582 2.66186523 C38.81109856 3.27994662 42.52039447 3.48540734 46.28637695 3.69311523 C47.02243164 3.73629883 47.75848633 3.77948242 48.5168457 3.82397461 C50.31485764 3.92905323 52.11309653 4.03023616 53.91137695 4.13061523 C53.58137695 4.79061523 53.25137695 5.45061523 52.91137695 6.13061523 C52.6950778 8.43761081 52.54320007 10.71993781 52.4309082 13.03295898 C52.39060989 13.81066147 52.35031158 14.58836395 52.30879211 15.38963318 C51.66415862 28.44389872 51.24782534 41.50990425 50.78189087 54.5715332 C49.86737841 80.1970824 48.89955213 105.8198199 47.82543945 131.43920898 C47.77963808 132.534097 47.73383671 133.62898502 47.68664742 134.75705147 C47.23480018 145.55515368 46.77956854 156.3530978 46.31459808 167.15064335 C46.14164632 171.18230275 45.97152039 175.21407841 45.80196762 179.24588203 C45.72292241 181.10905131 45.64259894 182.97216691 45.56082535 184.83521843 C45.34230525 189.81643305 45.14385887 194.79737747 44.9871254 199.78094482 C44.93597236 201.36768063 44.87914813 202.95424229 44.81707382 204.54058838 C44.73086694 206.85895781 44.67227219 209.17647354 44.62109375 211.49584961 C44.5767292 212.51901905 44.5767292 212.51901905 44.53146839 213.56285858 C44.42997469 221.30090013 49.02904165 225.65978416 53.91137695 231.13061523 C55.59837902 233.33777627 57.19343471 235.60498346 58.78637695 237.88061523 C59.19791016 238.45875977 59.60944336 239.0369043 60.03344727 239.63256836 C63.73073703 244.82983635 67.33549892 250.09013505 70.9284668 255.35986328 C74.24287566 260.20705293 77.6867167 264.9386335 81.25512695 269.60327148 C86.36405902 277.39921263 86.72106172 285.0199163 87.40356445 294.15014648 C87.52584263 295.6660882 87.64923105 297.18194071 87.77365112 298.69770813 C88.03390524 301.89345846 88.28702196 305.08965784 88.53430176 308.28643799 C88.89550636 312.95096856 89.27462003 317.61389486 89.65844727 322.27661133 C90.39372178 331.23597363 91.10996935 340.19680736 91.82416153 349.15787125 C92.42336254 356.66920502 93.02617902 364.18025032 93.62838936 371.69134331 C93.7890169 373.69498739 93.94959365 375.69863554 94.11012077 377.70228767 C95.49559305 394.99435719 96.89421183 412.28534388 98.2980957 429.57592773 C98.39893463 430.81809114 98.49977356 432.06025455 98.60366821 433.34005928 C99.60285956 445.64774703 100.60281269 457.95537266 101.60380936 470.2629137 C101.97752503 474.85942673 102.35073439 479.45598081 102.72390747 484.05253792 C102.98927099 487.31798573 103.25546861 490.5833648 103.52172852 493.84873962 C104.22449043 502.4868096 104.92421621 511.12444691 105.5456543 519.76879883 C105.63384933 520.98214401 105.72204437 522.1954892 105.81291199 523.44560242 C105.96051916 525.51079085 106.10299819 527.57635898 106.23799133 529.64241028 C106.95358349 539.70727476 109.22380145 548.47218535 112.88793945 557.83374023 C113.92042538 561.15976359 113.99037646 563.67996519 113.91137695 567.13061523 C107.90551758 569.53295898 101.8996582 571.93530273 95.89379883 574.33764648 C95.24343155 574.59847015 94.59306427 574.85929382 93.92298889 575.12802124 C92.58650895 575.66123194 91.24810672 576.18964657 89.90794373 576.71353149 C86.64904216 577.99406859 83.49689761 579.33067354 80.33935547 580.85473633 C69.26827568 585.99887441 59.02554929 585.83258664 46.97387695 585.50561523 C45.01884047 585.47544041 43.06375848 585.44807804 41.10864258 585.42358398 C36.37507183 585.35827004 31.64374396 585.25517642 26.91137695 585.13061523 C27.79710714 580.87613118 29.63523044 577.97172307 32.91137695 575.13061523 C36.0037514 573.42027554 39.22010326 572.21220383 42.53637695 571.00561523 C43.43428955 570.65853516 44.33220215 570.31145508 45.25732422 569.95385742 C49.74699218 568.23228292 54.23461081 566.7341333 58.84887695 565.38061523 C65.60888026 563.02421029 70.48606232 557.60244 75.36694336 552.55297852 C76.91137695 551.13061523 76.91137695 551.13061523 78.7019043 550.0949707 C80.75684225 548.98980893 80.75684225 548.98980893 82.91137695 546.13061523 C82.90213838 543.49495719 82.90213838 543.49495719 82.28955078 540.51708984 C81.9796093 538.76504997 81.9796093 538.76504997 81.66340637 536.97761536 C80.29426317 529.9737749 78.84950096 522.9902362 77.34887695 516.01342773 C76.99742811 514.36615791 76.64631104 512.71881727 76.29550171 511.07141113 C75.36372632 506.70001485 74.42754594 502.3295731 73.49053192 497.95929718 C72.51813518 493.41983597 71.55013917 488.87943673 70.58178711 484.33911133 C68.87186104 476.32432202 67.15888751 468.31018865 65.44424248 460.2964077 C63.05247535 449.11738245 60.66777893 437.93685295 58.28637695 426.75561523 C58.08875763 425.82852753 57.89113831 424.90143982 57.68753052 423.94625854 C55.05112811 411.57454271 52.46814605 399.19299774 49.93652344 386.79943848 C47.46077994 374.68539995 44.88540382 362.59375859 42.28637695 350.50561523 C38.45620392 332.68741336 34.69483844 314.8576446 31.04418945 297.00170898 C30.52914502 294.48378461 30.01404672 291.96587126 29.49890137 289.44796753 C29.14991178 287.74141982 28.80119596 286.0348161 28.45275879 284.32815552 C26.02831244 272.45615331 23.55481113 260.59771032 20.90185547 248.77416992 C17.41723607 232.90504207 15.42902266 216.90740318 14.0012207 200.73999023 C13.83147473 198.8724482 13.66116838 197.00495704 13.49035645 195.13751221 C13.03135182 190.10174331 12.58012902 185.06530592 12.13056564 180.02868652 C11.65355042 174.69770244 11.16989437 169.36732047 10.68701172 164.03686523 C9.9678545 156.09050902 9.25150164 148.14390703 8.53796291 140.19704437 C7.19101753 125.19798045 5.82439288 110.20076509 4.45258904 95.2039566 C3.75496481 87.57075198 3.06032665 79.93727528 2.36602116 72.30376816 C1.80300269 66.11433425 1.23878353 59.92501568 0.67160034 53.73596191 C0.13653567 47.89502675 -0.39405908 42.05370173 -0.92134094 36.21205902 C-1.11618608 34.06161054 -1.31257453 31.91130124 -1.51063538 29.76114655 C-1.78243876 26.80784217 -2.04862542 23.85408132 -2.31347656 20.90014648 C-2.392865 20.05191189 -2.47225344 19.20367729 -2.55404758 18.32973862 C-3.05777049 12.62152845 -3.45709553 6.85854707 -3.08862305 1.13061523 C-2.08862305 0.13061523 -2.08862305 0.13061523 0 0 Z " fill="#BFC5E5" transform="translate(684.088623046875,570.869384765625)"/>
<path d="M0 0 C-0.43755615 0.62342285 -0.8751123 1.2468457 -1.32592773 1.88916016 C-3.36592547 4.79915298 -5.40234777 7.71161623 -7.4375 10.625 C-8.16727051 11.66922119 -8.89704102 12.71344238 -9.64892578 13.78930664 C-14.43111278 20.66204108 -19.030484 27.60389951 -23.3984375 34.74609375 C-23.92695312 35.48988281 -24.45546875 36.23367188 -25 37 C-25.66 37 -26.32 37 -27 37 C-27.22042969 37.66386719 -27.44085937 38.32773437 -27.66796875 39.01171875 C-29.42901681 42.96245707 -31.8185983 46.29189241 -34.3125 49.8125 C-35.26867014 51.17195278 -36.22310193 52.5326299 -37.17578125 53.89453125 C-37.87888428 54.89734131 -37.87888428 54.89734131 -38.59619141 55.92041016 C-40.48766616 58.72242442 -42.20937408 61.61728966 -43.91088867 64.5378418 C-44.44999878 65.26161011 -44.44999878 65.26161011 -45 66 C-45.66 66 -46.32 66 -47 66 C-47.2475 66.70125 -47.495 67.4025 -47.75 68.125 C-49 71 -49 71 -51.25 74 C-53.34723 76.79269377 -53.34723 76.79269377 -52.40234375 79.38671875 C-50.75337122 82.45959514 -48.84182673 84.41486869 -46.3125 86.8125 C-37.24298442 95.61874953 -37.24298442 95.61874953 -34 100 C-34 100.66 -34 101.32 -34 102 C-33.34 102 -32.68 102 -32 102 C-29.53476773 103.96441599 -28.05799215 106.03249232 -27 109 C-27.56792973 113.05133525 -29.19328823 116.5434686 -30.875 120.25 C-31.28492188 121.22324219 -31.69484375 122.19648438 -32.1171875 123.19921875 C-34.19502606 128.0886326 -36.4167784 132.91037376 -38.6328125 137.73828125 C-40.61539807 142.08008929 -42.38316538 146.44861077 -44 150.9375 C-46.14797456 156.78160143 -48.427418 162.54642536 -50.85546875 168.28125 C-51.91611542 170.80073833 -52.9344007 173.33216391 -53.9375 175.875 C-55.50482588 179.82793434 -57.17709297 183.72642906 -58.875 187.625 C-61.44487372 193.57354018 -63.77650154 199.58277011 -65.99560547 205.67041016 C-66.95121778 208.27872395 -67.87791689 210.78133214 -69.234375 213.2109375 C-70.16094963 214.98358206 -70.16094963 214.98358206 -69.81640625 216.9921875 C-68.84247288 219.38741119 -67.55641355 221.11188291 -65.9375 223.125 C-63 226.78823529 -63 226.78823529 -63 229 C-62.34 229 -61.68 229 -61 229 C-59.35494276 231.11421434 -57.82275672 233.22981202 -56.3125 235.4375 C-55.41703191 236.72381856 -54.51989029 238.00897369 -53.62109375 239.29296875 C-53.17878418 239.92509277 -52.73647461 240.5572168 -52.28076172 241.20849609 C-50.03736482 244.34651486 -47.61728684 247.34010001 -45.1796875 250.328125 C-44 252 -44 252 -44 254 C-43.19304688 253.87882813 -42.38609375 253.75765625 -41.5546875 253.6328125 C-30.8821204 252.15995292 -20.2043846 251.42694285 -9.45410156 250.75488281 C-0.61851575 250.19617169 8.19026563 249.50118565 16.99853516 248.609375 C30.55256058 247.27628029 30.55256058 247.27628029 34 249 C34.65087891 251.62475586 34.65087891 251.62475586 35.2265625 255.21484375 C35.38967926 256.20855232 35.38967926 256.20855232 35.55609131 257.22233582 C35.92100431 259.45942164 36.27298859 261.69835057 36.625 263.9375 C36.87897776 265.51232692 37.13371591 267.08703138 37.38916016 268.66162109 C37.95290265 272.14809617 38.51061917 275.63547262 39.06445312 279.12353516 C39.90521229 284.41524632 40.75806687 289.7049517 41.61331177 294.99433899 C42.53643759 300.70414681 43.45610592 306.4145098 44.375 312.125 C44.64633759 313.8104744 44.64633759 313.8104744 44.92315674 315.52999878 C45.43756733 318.73064894 45.94966151 321.93166029 46.4609375 325.1328125 C46.69487213 326.58665596 46.69487213 326.58665596 46.93353271 328.06987 C47.07454407 328.95576309 47.21555542 329.84165619 47.36083984 330.75439453 C47.48486176 331.52961456 47.60888367 332.30483459 47.73666382 333.10354614 C48 335 48 335 48 337 C45.2915983 337.02714434 42.58347279 337.04690846 39.875 337.0625 C39.11445312 337.07087891 38.35390625 337.07925781 37.5703125 337.08789062 C33.23965284 337.10655726 29.27352726 336.76731662 25 336 C21.33856253 335.58690133 17.67046959 335.25926194 14 334.9375 C12.96617187 334.84662109 11.93234375 334.75574219 10.8671875 334.66210938 C5.55954067 334.21980547 0.33028585 333.9020168 -5 334 C-11.33289932 334.10838703 -17.56942903 333.6564129 -23.875 333.125 C-24.85082031 333.04636719 -25.82664062 332.96773437 -26.83203125 332.88671875 C-27.77175781 332.80292969 -28.71148438 332.71914063 -29.6796875 332.6328125 C-30.92854736 332.52283936 -30.92854736 332.52283936 -32.20263672 332.41064453 C-35.1745859 331.97437131 -38.01321651 331.22524663 -40.91848755 330.47436523 C-44.20484444 329.72542258 -47.52243165 329.4430151 -50.875 329.18359375 C-51.60259521 329.12220718 -52.33019043 329.06082062 -53.07983398 328.99757385 C-55.38609563 328.80473297 -57.69298959 328.621139 -60 328.4375 C-61.51437029 328.31111319 -63.02869372 328.18416368 -64.54296875 328.05664062 C-73.20545794 327.33675226 -81.86734488 326.7385776 -90.546875 326.26586914 C-93.75078462 326.01918803 -96.84192746 325.58335945 -100 325 C-99.54025874 316.33343197 -99.01519843 307.68035903 -98.24609375 299.03515625 C-98.18040192 298.29655365 -98.11471008 297.55795105 -98.04702759 296.79696655 C-97.77719363 293.78903581 -97.50369672 290.78145929 -97.22680664 287.77416992 C-94.9458779 274.05236413 -94.9458779 274.05236413 -97 261 C-95.68 261.33 -94.36 261.66 -93 262 C-92.88462891 260.69321289 -92.76925781 259.38642578 -92.65039062 258.04003906 C-91.4842385 244.95501011 -90.19591667 231.88613054 -88.82275391 218.82128906 C-88.49871754 215.73779621 -88.17691769 212.65407606 -87.85546875 209.5703125 C-86.90083085 200.43512636 -85.92802128 191.30283532 -84.8984375 182.17578125 C-83.07384227 165.86257567 -82.22603861 151.83438603 -87 136 C-87.31324219 134.88109375 -87.62648438 133.7621875 -87.94921875 132.609375 C-88.25472656 131.52140625 -88.56023438 130.4334375 -88.875 129.3125 C-89.18308594 128.19101562 -89.49117187 127.06953125 -89.80859375 125.9140625 C-90.69900607 122.81605017 -91.81585999 119.84393531 -92.97265625 116.8359375 C-98.36772003 101.94211781 -98.36772003 101.94211781 -95.49609375 95.6875 C-93.29587073 92.00916929 -90.60758943 88.7333643 -87.89013672 85.42773438 C-84.19909819 80.68688096 -81.1269328 75.52258549 -77.9375 70.4375 C-76.56650458 68.29337474 -75.19413486 66.15012753 -73.8203125 64.0078125 C-71.50002266 60.37081838 -69.19771667 56.72449523 -66.9296875 53.0546875 C-66.47988525 52.32709229 -66.03008301 51.59949707 -65.56665039 50.84985352 C-64.76710189 49.55099577 -63.97157887 48.24964532 -63.18139648 46.94506836 C-57.16463008 37.15458606 -49.85847825 32.43269191 -40.06005859 26.83886719 C-32.51013807 22.78161242 -32.51013807 22.78161242 -27.93261719 15.93969727 C-27.59328086 13.84983924 -27.26018424 11.75895611 -26.93408203 9.66699219 C-26 7 -26 7 -23.69482422 5.27832031 C-20.65931233 3.99126734 -17.68263659 3.04615287 -14.5 2.1875 C-12.91251953 1.68379883 -12.91251953 1.68379883 -11.29296875 1.16992188 C-3.57022964 -1.19007655 -3.57022964 -1.19007655 0 0 Z " fill="#402159" transform="translate(691,238)"/>
<path d="M0 0 C1.72669922 0.05994141 1.72669922 0.05994141 3.48828125 0.12109375 C19.46732026 0.78763765 33.76463959 2.8812514 45.625 14.4375 C53.81117067 23.34597985 56.34237537 33.89566507 55.96875 45.8828125 C55.16434083 56.42631839 51.57831484 65.73525849 46.4375 74.9375 C44.23352378 79.1418723 44.36271016 83.1025219 44.75 87.75 C46.4 88.41 48.05 89.07 49.75 89.75 C49.4375 91.6875 49.4375 91.6875 48.75 93.75 C45.99921116 94.66692961 44.39051087 94.85886083 41.5625 94.8125 C40.304375 94.791875 39.04625 94.77125 37.75 94.75 C37.255 96.235 37.255 96.235 36.75 97.75 C20.1564479 98.3873057 20.1564479 98.3873057 13.75 94.75 C11.75 91.75 11.75 91.75 11.75 88.75 C13.47265625 87.42578125 13.47265625 87.42578125 15.8125 86.0625 C21.90913978 82.17143765 26.7119751 78.02797338 28.9375 71 C28.98408452 67.75066588 28.98408452 67.75066588 27.375 65.25 C23.4611443 63.01351103 20.03965035 63.78110214 15.75 64.75 C14.76 65.245 14.76 65.245 13.75 65.75 C13.028125 64.698125 12.30625 63.64625 11.5625 62.5625 C8.46959794 58.40664354 4.9435603 54.86016069 1.25 51.25 C-3.41626464 46.68909838 -7.54404756 42.15010213 -11.25 36.75 C-7.6818993 50.03583118 -3.11393389 62.40360446 3.25 74.625 C3.745 75.65625 4.24 76.6875 4.75 77.75 C4.42 78.41 4.09 79.07 3.75 79.75 C-13.014957 70.23748918 -23.53421703 57.5865704 -29.1875 38.875 C-29.55568226 37.50368645 -29.91611336 36.13006476 -30.25 34.75 C-32.59833944 43.69367575 -34.50170306 52.67373505 -36.25 61.75 C-38.0625 61.625 -38.0625 61.625 -40.25 60.75 C-41.24 58.77 -42.23 56.79 -43.25 54.75 C-44.9 59.04 -46.55 63.33 -48.25 67.75 C-49.9 67.42 -51.55 67.09 -53.25 66.75 C-57.5664018 53.26124438 -55.47549933 39.87187178 -49.6015625 27.19140625 C-43.64091846 15.7256259 -37.78648894 8.73888284 -25.25 4.75 C-24.63125 4.255 -24.0125 3.76 -23.375 3.25 C-16.59283355 -1.53741161 -7.84953977 -0.37296156 0 0 Z " fill="#402059" transform="translate(682.25,123.25)"/>
<path d="M0 0 C0.33 0 0.66 0 1 0 C1.20753906 0.84820312 1.41507813 1.69640625 1.62890625 2.5703125 C4.62897757 13.99317819 8.38270551 24.58963883 17 33 C17 33.66 17 34.32 17 35 C17.59039063 35.26941406 18.18078125 35.53882813 18.7890625 35.81640625 C21.60947266 37.32627247 23.68899875 39.30189221 26.0234375 41.46484375 C28.50791209 43.39448508 31.16201851 44.6609524 34 46 C33.764021 45.50411377 33.52804199 45.00822754 33.28491211 44.49731445 C28.62478478 34.62714896 24.34405886 24.73170442 20.875 14.375 C20.56812256 13.46919189 20.26124512 12.56338379 19.94506836 11.63012695 C17.87134784 5.25730432 17.87134784 5.25730432 19 3 C19.65484375 3.79921875 20.3096875 4.5984375 20.984375 5.421875 C26.38395266 11.94236499 31.94108885 18.14942734 38.02636719 24.04003906 C40.60877094 26.54900953 42.94008443 29.04235095 45 32 C45.680625 31.649375 46.36125 31.29875 47.0625 30.9375 C50.8180978 29.73890496 53.20103588 30.01508338 57 31 C59 32.625 59 32.625 60 35 C60.34269002 39.28362524 59.68972711 41.06548456 57.12890625 44.53515625 C53.18105288 49.05554822 49.31374538 53.14872199 44 56 C43.34 56 42.68 56 42 56 C42.30834699 59.01716843 42.30834699 59.01716843 44 62 C46.89982299 63.2881188 49.86614542 63.62761296 53 64 C54.28390625 64.16435547 54.28390625 64.16435547 55.59375 64.33203125 C57.72578329 64.58504153 59.86267791 64.79644552 62 65 C62 65.33 62 65.66 62 66 C61.154375 65.93296875 60.30875 65.8659375 59.4375 65.796875 C55.65051347 65.74523427 52.64269344 65.92223061 49 67 C46.32278956 69.85512632 44.61086668 72.66586512 42.78125 76.1171875 C39.05691115 82.1447359 32.21310774 83.4991409 25.8125 85.6875 C24.89791016 86.00783203 23.98332031 86.32816406 23.04101562 86.65820312 C16.27526986 89 16.27526986 89 14 89 C13.92557943 85.13013042 13.95297814 81.7264085 15 78 C13.8718689 77.96241577 13.8718689 77.96241577 12.72094727 77.92407227 C9.33460804 77.80849486 5.94857387 77.68559655 2.5625 77.5625 C1.37849609 77.52318359 0.19449219 77.48386719 -1.02539062 77.44335938 C-2.15009766 77.40146484 -3.27480469 77.35957031 -4.43359375 77.31640625 C-5.47572021 77.27974854 -6.51784668 77.24309082 -7.59155273 77.20532227 C-10 77 -10 77 -11 76 C-11.6012273 65.59898875 -10.63519324 55.06907269 -10 44.6875 C-9.90329593 43.06056764 -9.80693957 41.43361456 -9.7109375 39.80664062 C-9.47795534 35.87084418 -9.24030755 31.93535569 -9 28 C-8.34 28 -7.68 28 -7 28 C-6.823479 27.22285645 -6.64695801 26.44571289 -6.46508789 25.64501953 C-5.66688032 22.1377359 -4.86474119 18.63136309 -4.0625 15.125 C-3.78470703 13.90167969 -3.50691406 12.67835938 -3.22070312 11.41796875 C-2.95322266 10.25136719 -2.68574219 9.08476562 -2.41015625 7.8828125 C-2.16402588 6.80402832 -1.91789551 5.72524414 -1.66430664 4.61376953 C-1 2 -1 2 0 0 Z M9 76 C13 77 13 77 13 77 Z " fill="#ED74AA" transform="translate(652,156)"/>
<path d="M0 0 C0 0.66 0 1.32 0 2 C4.29 1.01 8.58 0.02 13 -1 C15.01058915 2.41082088 17.00866986 5.82796194 19 9.25 C19.57234375 10.21808594 20.1446875 11.18617188 20.734375 12.18359375 C21.54648437 13.58544922 21.54648437 13.58544922 22.375 15.015625 C22.87773438 15.87446289 23.38046875 16.73330078 23.8984375 17.61816406 C25 20 25 20 25 24 C13.45836643 26.76763662 1.91891849 29.25212073 -9.78125 31.25390625 C-20.21689617 33.07885785 -30.58991383 35.10371952 -40.953125 37.296875 C-42.30389379 37.58173235 -43.65466284 37.8665885 -45.00543213 38.15144348 C-50.4769745 39.30742682 -55.94725093 40.46912364 -61.41455078 41.64501953 C-96.54189804 49.18819612 -96.54189804 49.18819612 -104 48 C-107.85622386 45.13370235 -110.58356579 42.15492438 -113 38 C-113 37.34 -113 36.68 -113 36 C-111.25307205 35.32532438 -109.50231475 34.66055844 -107.75 34 C-106.77546875 33.62875 -105.8009375 33.2575 -104.796875 32.875 C-102 32 -102 32 -98 32 C-97.67 31.01 -97.34 30.02 -97 29 C-94.82324219 28.09130859 -94.82324219 28.09130859 -91.796875 27.2734375 C-85.70297991 25.52306338 -79.7022909 23.59114092 -73.703125 21.5390625 C-72.77850464 21.22378601 -71.85388428 20.90850952 -70.90124512 20.5836792 C-68.98530117 19.92969525 -67.06965535 19.27483728 -65.15429688 18.61914062 C-62.27026959 17.63193828 -59.38522711 16.64775199 -56.5 15.6640625 C-45.74781722 12.00011345 -45.74781722 12.00011345 -35.03320312 8.22827148 C-34.26192078 7.95232147 -33.49063843 7.67637146 -32.69598389 7.39205933 C-31.27565045 6.88187995 -29.85662036 6.36804909 -28.43927002 5.84963989 C-23.81260176 4.18599871 -19.29187582 3.14789646 -14.4375 2.4375 C-11.09845027 1.83818338 -8.031172 0.71245826 -4.875 -0.51171875 C-3 -1 -3 -1 0 0 Z " fill="#EB619C" transform="translate(816,410)"/>
<path d="M0 0 C5.76840599 0.79054962 10.79904662 2.66392219 16.21875 4.73046875 C19.90784255 6.08713874 19.90784255 6.08713874 23.53125 6.55078125 C31.43311382 7.85886006 34.7358851 10.20178398 39.50390625 16.50756836 C41.89410177 19.88410672 44.20845763 23.30497961 46.48681641 26.7578125 C48.33734965 29.49987402 50.36513503 32.03696658 52.5 34.5625 C56.35005404 39.17543512 60.06454043 43.88040835 63.75 48.625 C64.34506348 49.39070313 64.94012695 50.15640625 65.55322266 50.9453125 C68.55857027 54.82192778 71.54598597 58.71111646 74.5078125 62.62109375 C75.63006913 64.10166802 76.75246172 65.58213926 77.875 67.0625 C78.4119751 67.77132324 78.9489502 68.48014648 79.50219727 69.21044922 C82.95700235 73.73565905 86.5544484 78.03929984 90.51171875 82.140625 C92.69835436 84.87248471 94.16124632 87.42164662 93.796875 90.98828125 C92.79709012 93.51224798 91.57657638 95.81812517 90.25 98.1875 C89.71632813 99.1465625 89.18265625 100.105625 88.6328125 101.09375 C88.09398437 102.0528125 87.55515625 103.011875 87 104 C86.041163 105.72888743 85.08277838 107.45802589 84.125 109.1875 C83.4171122 110.45858156 82.70896103 111.72951673 82 113 C81.34 113 80.68 113 80 113 C80 112.34 80 111.68 80 111 C79.01 111 78.02 111 77 111 C76.5875 110.20005615 76.175 109.4001123 75.75 108.57592773 C65.48205475 88.66096019 65.48205475 88.66096019 54.99511719 68.86083984 C52.91868114 64.97796557 50.86594048 61.08256908 48.8125 57.1875 C48.20571411 56.03967041 48.20571411 56.03967041 47.58666992 54.86865234 C47.19326416 54.12180176 46.7998584 53.37495117 46.39453125 52.60546875 C45.99443848 51.86353271 45.5943457 51.12159668 45.18212891 50.35717773 C44 48 44 48 42.93896484 45.26977539 C40.98676493 40.22127478 40.98676493 40.22127478 36.91723633 36.9777832 C34.25443495 36.42134082 31.71696894 36.19946272 29 36.0625 C27.50049805 35.92932373 27.50049805 35.92932373 25.97070312 35.79345703 C23.79836895 35.6015653 21.6243428 35.42813797 19.44921875 35.27099609 C15.90216825 34.99231362 12.3782187 34.61445041 8.84375 34.20703125 C-3.71783753 32.77173246 -16.20688691 31.61546904 -28.85742188 31.46630859 C-33.68237639 31.35665054 -37.12087054 31.2195204 -41 28 C-41.875 25.875 -41.875 25.875 -42 24 C-39.92537634 21.92537634 -35.7992558 22.30217661 -32.9375 22 C-32.12547119 21.91097412 -31.31344238 21.82194824 -30.47680664 21.73022461 C-25.29678593 21.18211962 -20.1396544 20.81740557 -14.9375 20.5625 C-6.4823232 20.10270187 1.70141663 18.63301331 10 17 C7.66540833 14.58420514 5.53281983 12.67656758 2.75 10.75 C0 8 0 8 -0.3828125 5.90234375 C-0.375 3.6875 -0.375 3.6875 0 0 Z " fill="#EE74A9" transform="translate(480,287)"/>
<path d="M0 0 C-0.33 11.55 -0.66 23.1 -1 35 C-5.34479409 36.08619852 -9.28249858 36.09111302 -13.71582031 36.02172852 C-14.59422577 36.01212097 -15.47263123 36.00251343 -16.37765503 35.99261475 C-19.2778942 35.95966288 -22.17798095 35.91931594 -25.078125 35.87890625 C-27.09022486 35.85460141 -29.10233034 35.83075804 -31.11444092 35.80735779 C-36.40810556 35.74455308 -41.70167055 35.67547612 -46.99523926 35.60510254 C-52.39782171 35.53438652 -57.80047476 35.4695891 -63.203125 35.40429688 C-73.80216093 35.27533108 -84.40110103 35.13974043 -95 35 C-94.32106 29.73642493 -92.20214097 27.38122276 -88.43029785 23.81289673 C-84.28707705 20.72223381 -79.91253772 19.76373991 -74.921875 18.69921875 C-73.35013519 18.32734184 -73.35013519 18.32734184 -71.74664307 17.94795227 C-68.42005469 17.16722266 -65.08604174 16.42666787 -61.75 15.6875 C-59.52672382 15.17390019 -57.304059 14.65764628 -55.08203125 14.13867188 C-50.96936331 13.18094011 -46.85358147 12.24000702 -42.73339844 11.31518555 C-37.66205571 10.17118294 -32.62518019 8.91096612 -27.59146118 7.61199951 C-25 7 -25 7 -21.1640625 6.50390625 C-17.46576356 5.9149179 -14.71084914 4.62134748 -11.375 2.9375 C-6.93751632 0.69767748 -5.12430893 0 0 0 Z " fill="#5A2F53" transform="translate(687,1121)"/>
<path d="M0 0 C0.97665287 2.41932284 1.94768779 4.84061551 2.91015625 7.265625 C3.57227504 8.92685494 4.24414027 10.58430224 4.93359375 12.234375 C6.61014925 16.37362208 7.1251478 19.56976787 7 24 C-2.00878906 27.60351562 -2.00878906 27.60351562 -11.01757812 31.20703125 C-11.6679454 31.46785492 -12.31831268 31.72867859 -12.98838806 31.99740601 C-14.324868 32.5306167 -15.66327023 33.05903134 -17.00343323 33.58291626 C-20.26233479 34.86345335 -23.41447934 36.20005831 -26.57202148 37.72412109 C-37.64310128 42.86825918 -47.88582766 42.7019714 -59.9375 42.375 C-61.89253648 42.34482518 -63.84761847 42.31746281 -65.80273438 42.29296875 C-70.53630512 42.2276548 -75.26763299 42.12456119 -80 42 C-79.11426981 37.74551594 -77.27614651 34.84110784 -74 32 C-70.90762556 30.28966031 -67.69127369 29.08158859 -64.375 27.875 C-63.0281311 27.35437988 -63.0281311 27.35437988 -61.65405273 26.82324219 C-57.16438477 25.10166769 -52.67676614 23.60351807 -48.0625 22.25 C-40.0050374 19.43306032 -33.80591323 12.0534523 -28.078125 5.953125 C-20.97333191 -1.15166809 -9.44126153 -0.38361785 0 0 Z " fill="#3F2059" transform="translate(791,1114)"/>
<path d="M0 0 C0.99 0.66 1.98 1.32 3 2 C3 2.66 3 3.32 3 4 C8.99320151 5.45933748 14.85845775 6.41509121 21 7 C21 7.33 21 7.66 21 8 C20.154375 7.93296875 19.30875 7.8659375 18.4375 7.796875 C14.65051347 7.74523427 11.64269344 7.92223061 8 9 C5.32278956 11.85512632 3.61086668 14.66586512 1.78125 18.1171875 C-1.94308885 24.1447359 -8.78689226 25.4991409 -15.1875 27.6875 C-16.10208984 28.00783203 -17.01667969 28.32816406 -17.95898438 28.65820312 C-24.72473014 31 -24.72473014 31 -27 31 C-27.15347719 28.59552407 -27.154094 26.39506104 -27 24 C-26.96519531 23.278125 -26.93039062 22.55625 -26.89453125 21.8125 C-26.38759763 18.92147265 -25.78015481 17.36944743 -24 15 C-20.90702609 12.91417393 -17.53096493 11.42284436 -14.13671875 9.89672852 C-8.56965389 7.39091671 -4.23496204 4.45785478 0 0 Z " fill="#E9629C" transform="translate(693,214)"/>
<path d="M0 0 C0.99 0.495 0.99 0.495 2 1 C2.33 38.29 2.66 75.58 3 114 C2.67 114 2.34 114 2 114 C1.67 115.98 1.34 117.96 1 120 C0.67 120 0.34 120 0 120 C0 80.4 0 40.8 0 0 Z " fill="#A096C7" transform="translate(648,632)"/>
<path d="M0 0 C0.99 0 1.98 0 3 0 C3 0.66 3 1.32 3 2 C3.66 2 4.32 2 5 2 C5 2.66 5 3.32 5 4 C5.88945313 4.39638672 5.88945313 4.39638672 6.796875 4.80078125 C9.08029054 6.04370425 10.47426723 7.30401646 12.25 9.1875 C16.80717996 13.88218108 21.54692744 18.36461829 27 22 C27 22.66 27 23.32 27 24 C27.66 24 28.32 24 29 24 C29 24.66 29 25.32 29 26 C29.87398437 26.38285156 29.87398437 26.38285156 30.765625 26.7734375 C33.21388223 28.11741087 34.81743248 29.61810296 36.75 31.625 C37.36359375 32.25664062 37.9771875 32.88828125 38.609375 33.5390625 C39.29773438 34.26222656 39.29773438 34.26222656 40 35 C39.01 35.33 38.02 35.66 37 36 C34.85368164 34.00051856 32.70790579 32.00046034 30.5625 30 C29.89959961 29.3822168 29.23669922 28.76443359 28.55371094 28.12792969 C24.79816295 24.62426755 21.05366603 21.10956914 17.32421875 17.578125 C16.1794104 16.4953125 16.1794104 16.4953125 15.01147461 15.390625 C13.52226926 13.98100042 12.03475588 12.56958585 10.54907227 11.15625 C9.86772217 10.51171875 9.18637207 9.8671875 8.484375 9.203125 C7.88334961 8.63239258 7.28232422 8.06166016 6.66308594 7.47363281 C4.85837799 5.80689978 4.85837799 5.80689978 2 4 C0.515 10.435 0.515 10.435 -1 17 C-1.66 17 -2.32 17 -3 17 C-3.33 17.99 -3.66 18.98 -4 20 C-2.62131519 2.62131519 -2.62131519 2.62131519 0 0 Z " fill="#EB5B0E" transform="translate(732,354)"/>
<path d="M0 0 C6.98216896 5.84222301 13.28714609 12.03683321 19.22265625 18.94140625 C20.4645329 20.37979965 21.72388113 21.80321057 22.99609375 23.21484375 C23.63675781 23.92769531 24.27742187 24.64054687 24.9375 25.375 C25.52402344 26.02210938 26.11054687 26.66921875 26.71484375 27.3359375 C28 29 28 29 28 31 C26.35 31.66 24.7 32.32 23 33 C22.29037109 32.01773438 22.29037109 32.01773438 21.56640625 31.015625 C15.84240665 23.11583608 10.05846401 15.25850264 4.09765625 7.53515625 C3.54980469 6.82230469 3.00195312 6.10945313 2.4375 5.375 C1.96183594 4.76398438 1.48617187 4.15296875 0.99609375 3.5234375 C0 2 0 2 0 0 Z " fill="#4B2558" transform="translate(693,438)"/>
<path d="M0 0 C0.33 0 0.66 0 1 0 C1.33 10.23 1.66 20.46 2 31 C0.68 31.33 -0.64 31.66 -2 32 C-2 31.34 -2 30.68 -2 30 C-31.37 30 -60.74 30 -91 30 C-89 28 -89 28 -85.38070679 27.79745483 C-83.78803426 27.8094587 -82.19542509 27.83281942 -80.60302734 27.86474609 C-79.73466751 27.87420761 -78.86630768 27.88366913 -77.97163391 27.89341736 C-75.09285791 27.92717552 -72.21450552 27.97526856 -69.3359375 28.0234375 C-67.34340532 28.04959633 -65.35086126 28.074864 -63.35830688 28.09927368 C-58.10726923 28.1660059 -52.85648066 28.24488106 -47.60565186 28.32623291 C-42.25021952 28.40707382 -36.89464082 28.47650316 -31.5390625 28.546875 C-21.02585821 28.68670886 -10.51292308 28.84041702 0 29 C0 19.43 0 9.86 0 0 Z " fill="#48183F" transform="translate(684,1125)"/>
<path d="M0 0 C0.66 0.33 1.32 0.66 2 1 C-0.31 3.64 -2.62 6.28 -5 9 C24.04 9.33 53.08 9.66 83 10 C83 10.33 83 10.66 83 11 C53.3 11 23.6 11 -7 11 C-5.78448697 4.92243483 -4.38840836 4.0149268 0 0 Z " fill="#5C3256" transform="translate(599,1145)"/>
<path d="M0 0 C0.495 1.485 0.495 1.485 1 3 C-4.47864882 4.1688342 -9.95955499 5.32616078 -15.44287109 6.47290039 C-17.30779431 6.86460239 -19.17206217 7.25943826 -21.03564453 7.6574707 C-23.71480756 8.22913016 -26.39612704 8.78946939 -29.078125 9.34765625 C-29.91055725 9.52780777 -30.7429895 9.70795929 -31.60064697 9.89356995 C-32.77140778 10.13393227 -32.77140778 10.13393227 -33.96582031 10.37915039 C-34.64976868 10.52349014 -35.33371704 10.6678299 -36.03839111 10.81654358 C-38.25076771 11.02345266 -39.88869155 10.65083993 -42 10 C-38.73946754 7.82631169 -36.53234508 7.3295212 -32.71484375 6.5625 C-31.46123047 6.30726563 -30.20761719 6.05203125 -28.91601562 5.7890625 C-27.58987361 5.52589114 -26.26370154 5.26287122 -24.9375 5 C-23.65166016 4.73960937 -22.36582031 4.47921875 -21.04101562 4.2109375 C-17.36198442 3.4672436 -13.68132305 2.73225367 -10 2 C-8.02209706 1.60435836 -6.04422701 1.20855224 -4.06640625 0.8125 C-2.71095051 0.54160156 -1.35548756 0.27073918 0 0 Z " fill="#EA5290" transform="translate(766,446)"/>
<path d="M0 0 C-2.1234016 0.83739781 -4.2487728 1.66980283 -6.375 2.5 C-7.55835938 2.9640625 -8.74171875 3.428125 -9.9609375 3.90625 C-13 5 -13 5 -15 5 C-15.268125 5.5775 -15.53625 6.155 -15.8125 6.75 C-17 9 -17 9 -20 13 C-8.12 13 3.76 13 16 13 C16 13.33 16 13.66 16 14 C3.46 14 -9.08 14 -22 14 C-20.8867014 9.54680559 -19.50165207 6.88371347 -16 4 C-4.95687412 -1.91380512 -4.95687412 -1.91380512 0 0 Z " fill="#4B3063" transform="translate(733,1142)"/>
<path d="M0 0 C0.33 1.65 0.66 3.3 1 5 C-11.87 4.505 -11.87 4.505 -25 4 C-25.33 3.01 -25.66 2.02 -26 1 C-24.15535156 1.01740234 -24.15535156 1.01740234 -22.2734375 1.03515625 C-20.64062653 1.04454022 -19.0078139 1.05363977 -17.375 1.0625 C-16.56675781 1.07087891 -15.75851562 1.07925781 -14.92578125 1.08789062 C-9.87932866 1.10840466 -4.97360733 0 0 0 Z M-6 3 C-2 4 -2 4 -2 4 Z " fill="#EE728B" transform="translate(667,229)"/>
<path d="M0 0 C0.66 0.33 1.32 0.66 2 1 C2 1.66 2 2.32 2 3 C2.66 3 3.32 3 4 3 C5.53851766 4.71951974 7.00731759 6.50187497 8.4375 8.3125 C10.85546766 11.35985628 13.23963094 14.26427709 16 17 C17.03013277 18.64821244 18.03114628 20.31503702 19 22 C19.66 22.99 20.32 23.98 21 25 C20.01 25 19.02 25 18 25 C15.94921875 22.83984375 15.94921875 22.83984375 13.6875 19.9375 C11.0032309 16.53391696 8.31909953 13.175869 5.4375 9.9375 C3 7 3 7 3 5 C1.68 4.34 0.36 3.68 -1 3 C-0.67 2.01 -0.34 1.02 0 0 Z " fill="#E2730E" transform="translate(575,474)"/>
<path d="M0 0 C-2.23000641 2.23000641 -3.00826488 2.33604772 -6 2.875 C-8.14684895 3.31424358 -8.14684895 3.31424358 -10 4 C-10.33 4.66 -10.66 5.32 -11 6 C-11.33 6.66 -11.66 7.32 -12 8 C-13.91242855 8.46162068 -15.82785307 8.91512478 -17.7578125 9.296875 C-21.77902458 10.55788227 -24.82053161 13.31098152 -28 16 C-27.10038072 12.06416566 -25.53814599 10.42092949 -22.25 8.3125 C-18.93365322 6.38397226 -15.65742253 5.16372535 -12 4 C-10.64377755 3.03126968 -9.30582947 2.03565785 -8 1 C-5.07175348 0.02391783 -3.04386724 -0.08226668 0 0 Z " fill="#4B2960" transform="translate(669,124)"/>
<path d="M0 0 C6.22099345 0.78842452 9.16577104 4.28871057 13 9 C17.06143442 15.27583459 18.95139784 21.64413411 20 29 C19.34 29 18.68 29 18 29 C17.87625 28.26136719 17.7525 27.52273437 17.625 26.76171875 C15.62712748 16.93468327 11.32857909 8.78287419 3 2.875 C2.01 2.25625 1.02 1.6375 0 1 C0 0.67 0 0.34 0 0 Z " fill="#492C5F" transform="translate(718,132)"/>
<path d="M0 0 C2.22825644 2.22825644 2.69239369 3.65761628 3.625 6.625 C3.88539063 7.44226563 4.14578125 8.25953125 4.4140625 9.1015625 C4.60742188 9.72804687 4.80078125 10.35453125 5 11 C4.34 11 3.68 11 3 11 C1.515 8.03 1.515 8.03 0 5 C-1.65 9.29 -3.3 13.58 -5 18 C-6.65 17.67 -8.3 17.34 -10 17 C-10 16.34 -10 15.68 -10 15 C-8.68 15.33 -7.36 15.66 -6 16 C-5.88785156 15.29488281 -5.77570312 14.58976563 -5.66015625 13.86328125 C-4.93685092 10.72610488 -3.80542309 8.09872094 -2.4375 5.1875 C-1.98246094 4.21167969 -1.52742187 3.23585937 -1.05859375 2.23046875 C-0.70925781 1.49441406 -0.35992188 0.75835937 0 0 Z " fill="#542B61" transform="translate(639,173)"/>
<path d="M0 0 C0.99 0.33 1.98 0.66 3 1 C3.94921875 3.50390625 3.94921875 3.50390625 4.6875 6.5625 C5.06455078 8.08037109 5.06455078 8.08037109 5.44921875 9.62890625 C5.63097656 10.41136719 5.81273437 11.19382812 6 12 C4.33657163 13.66342837 2.2174291 13.36048097 -0.0625 13.5625 C-0.98160156 13.64628906 -1.90070312 13.73007812 -2.84765625 13.81640625 C-3.55792969 13.87699219 -4.26820313 13.93757813 -5 14 C-5.33 13.34 -5.66 12.68 -6 12 C-3.04335481 10.5216774 -0.25770263 10.93967217 3 11 C2.01 7.37 1.02 3.74 0 0 Z " fill="#DB5919" transform="translate(728,473)"/>
<path d="M0 0 C15.74487472 -0.18451025 15.74487472 -0.18451025 23 1 C23 1.33 23 1.66 23 2 C15.66229506 3.05520093 8.32504527 3.38777629 1 2 C0.67 1.34 0.34 0.68 0 0 Z " fill="#31114D" transform="translate(657,568)"/>
<path d="M0 0 C0.36738281 0.62390625 0.73476563 1.2478125 1.11328125 1.890625 C3.59718087 4.66765563 5.57975134 4.97414007 9.1875 5.75 C10.27417969 5.99234375 11.36085938 6.2346875 12.48046875 6.484375 C13.72763672 6.73960937 13.72763672 6.73960937 15 7 C14.67 7.66 14.34 8.32 14 9 C9.02906176 8.58846263 4.55491614 8.20399168 0 6 C0 4.02 0 2.04 0 0 Z " fill="#EA5E0D" transform="translate(715,246)"/>
<path d="M0 0 C0.33 1.32 0.66 2.64 1 4 C1.66 4 2.32 4 3 4 C3.95261487 8.76307437 4.08333357 13.1666528 4 18 C3.34 18.33 2.68 18.66 2 19 C1.66225668 16.77149723 1.3299813 14.54216533 1 12.3125 C0.814375 11.07113281 0.62875 9.82976563 0.4375 8.55078125 C0.07899589 5.64113629 -0.08942256 2.92299978 0 0 Z " fill="#30104B" transform="translate(732,545)"/>
<path d="M0 0 C0.66 0 1.32 0 2 0 C1.67 6.93 1.34 13.86 1 21 C0.67 21 0.34 21 0 21 C-0.1963696 18.62543835 -0.38231294 16.25079981 -0.5625 13.875 C-0.61857422 13.20984375 -0.67464844 12.5446875 -0.73242188 11.859375 C-1.03625857 7.7271959 -0.85227531 4.05304259 0 0 Z " fill="#2F0F4A" transform="translate(594,527)"/>
<path d="M0 0 C3.33333333 3.33333333 6.66666667 6.66666667 10 10 C9.67 10.66 9.34 11.32 9 12 C5.57548836 10.85849612 4.91203482 9.95548398 2.8125 7.125 C2.28269531 6.42632812 1.75289062 5.72765625 1.20703125 5.0078125 C0 3 0 3 0 0 Z " fill="#EF7705" transform="translate(552,447)"/>
<path d="M0 0 C0.99 0 1.98 0 3 0 C2.34 3.63 1.68 7.26 1 11 C0.34 11 -0.32 11 -1 11 C-1.33 11.99 -1.66 12.98 -2 14 C-1.03644647 4.58997722 -1.03644647 4.58997722 0 0 Z " fill="#EA5C0C" transform="translate(727,375)"/>
<path d="M0 0 C1.20930281 3.97097304 0.56147135 6.13741297 -1 10 C-1.99 11.485 -1.99 11.485 -3 13 C-3.66 13 -4.32 13 -5 13 C-4.39254603 8.14036821 -2.27241033 4.2594482 0 0 Z " fill="#35134C" transform="translate(731,186)"/>
<path d="M0 0 C4.19813062 3.74427866 6.07776117 6.8403063 8 12 C7.34 12 6.68 12 6 12 C2.17974459 8.08656763 0.40137545 5.61925626 0 0 Z " fill="#EF7194" transform="translate(566,365)"/>
<path d="M0 0 C0.99 0 1.98 0 3 0 C6.3203125 5.078125 6.3203125 5.078125 7 7 C6.1171875 9.234375 6.1171875 9.234375 5 11 C4.16151196 9.54462432 3.32936066 8.08559627 2.5 6.625 C1.80390625 5.40683594 1.80390625 5.40683594 1.09375 4.1640625 C0 2 0 2 0 0 Z " fill="#EE5B11" transform="translate(754,282)"/>
<path d="M0 0 C0.66 0.33 1.32 0.66 2 1 C-0.31 3.64 -2.62 6.28 -5 9 C-3.68 9.66 -2.36 10.32 -1 11 C-2.98 11 -4.96 11 -7 11 C-6.68232368 5.59950264 -3.80003673 3.47662935 0 0 Z " fill="#674162" transform="translate(599,1145)"/>
<path d="M0 0 C0.66 0.33 1.32 0.66 2 1 C2 1.66 2 2.32 2 3 C2.66 3 3.32 3 4 3 C6.1875 5.3125 6.1875 5.3125 8 8 C7.67 8.99 7.34 9.98 7 11 C5.62437146 9.71034824 4.29233607 8.37310707 3 7 C3 6.34 3 5.68 3 5 C1.68 4.34 0.36 3.68 -1 3 C-0.67 2.01 -0.34 1.02 0 0 Z " fill="#F06B08" transform="translate(575,474)"/>
<path d="M0 0 C0.33 0 0.66 0 1 0 C1.05429959 1.74965358 1.09292823 3.49979787 1.125 5.25 C1.14820313 6.22453125 1.17140625 7.1990625 1.1953125 8.203125 C0.99862781 11.0196498 0.44568916 12.60949036 -1 15 C-1.33 14.67 -1.66 14.34 -2 14 C-1.9355733 12.39226094 -1.79831686 10.78716777 -1.625 9.1875 C-1.48964844 7.87845703 -1.48964844 7.87845703 -1.3515625 6.54296875 C-1.04111511 4.29739927 -0.60050355 2.18318663 0 0 Z " fill="#EB580B" transform="translate(720,409)"/>
<path d="M0 0 C2.32472205 2.85306797 3.7508258 5.54074837 5 9 C4.34 9.66 3.68 10.32 3 11 C-1.06153846 4.6 -1.06153846 4.6 -0.75 1.5625 C-0.5025 1.046875 -0.255 0.53125 0 0 Z " fill="#EC5A0E" transform="translate(780,324)"/>
<path d="M0 0 C2.0343459 1.41519715 2.90410393 2.54982123 3.421875 4.98046875 C3.66273952 6.98176954 3.83532741 8.9909944 4 11 C1.35534962 7.8745041 0.15585285 4.91211733 -1 1 C-0.67 0.67 -0.34 0.34 0 0 Z " fill="#F05EB1" transform="translate(530,342)"/>
<path d="M0 0 C0.33 0 0.66 0 1 0 C1.33 4.29 1.66 8.58 2 13 C1.01 13.495 1.01 13.495 0 14 C-0.77916092 8.97874074 -1.13016601 5.02296004 0 0 Z " fill="#A49AC7" transform="translate(594,573)"/>
<path d="M0 0 C2.32101984 3.48152976 2.69903201 5.86169011 3 10 C2.34 10.66 1.68 11.32 1 12 C0.7834375 10.6078125 0.7834375 10.6078125 0.5625 9.1875 C0.07899889 5.99274889 0.07899889 5.99274889 -1 3 C-0.67 2.01 -0.34 1.02 0 0 Z " fill="#EA5B12" transform="translate(716,429)"/>
<path d="M0 0 C2.56687367 3.8503105 1.83288724 5.58569763 1 10 C0.34 10 -0.32 10 -1 10 C-1.33 10.66 -1.66 11.32 -2 12 C-1.34 8.04 -0.68 4.08 0 0 Z " fill="#E9570A" transform="translate(723,395)"/>
<path d="M0 0 C3.24299151 2.38957269 5.50902342 4.2047869 7 8 C6.01 8 5.02 8 4 8 C2.61328125 6.46875 2.61328125 6.46875 1.3125 4.5 C0.87550781 3.8503125 0.43851563 3.200625 -0.01171875 2.53125 C-0.50091797 1.77328125 -0.50091797 1.77328125 -1 1 C-0.67 0.67 -0.34 0.34 0 0 Z " fill="#EE7805" transform="translate(544,438)"/>
<path d="M0 0 C0.8353125 0.556875 0.8353125 0.556875 1.6875 1.125 C-1.68347383 2.62321059 -3.51692119 3.125 -7.3125 3.125 C-7.3125 2.465 -7.3125 1.805 -7.3125 1.125 C-2.88173077 -1.09038462 -2.88173077 -1.09038462 0 0 Z " fill="#3A1C50" transform="translate(761.3125,1150.875)"/>
<path d="M0 0 C0.33 0 0.66 0 1 0 C1.33 3.63 1.66 7.26 2 11 C1.34 11 0.68 11 0 11 C-1.28571429 3.57142857 -1.28571429 3.57142857 0 0 Z " fill="#A299C9" transform="translate(661,1099)"/>
<path d="M0 0 C0.66 0.33 1.32 0.66 2 1 C1.34 2.98 0.68 4.96 0 7 C-1.65 6.67 -3.3 6.34 -5 6 C-5 5.34 -5 4.68 -5 4 C-3.68 4.33 -2.36 4.66 -1 5 C-0.67 3.35 -0.34 1.7 0 0 Z " fill="#A75395" transform="translate(634,184)"/>
<path d="M0 0 C2.25245881 2.68841859 3.88213958 4.64641875 5 8 C4.34 8.66 3.68 9.32 3 10 C3 8.68 3 7.36 3 6 C2.34 6 1.68 6 1 6 C0.34 4.35 -0.32 2.7 -1 1 C-0.67 0.67 -0.34 0.34 0 0 Z " fill="#EC5D16" transform="translate(798,357)"/>
<path d="M0 0 C0.33 0 0.66 0 1 0 C0.67 3.3 0.34 6.6 0 10 C-0.66 10 -1.32 10 -2 10 C-2 7.36 -2 4.72 -2 2 C-1.34 2 -0.68 2 0 2 C0 1.34 0 0.68 0 0 Z " fill="#34134F" transform="translate(630,161)"/>
<path d="M0 0 C0.33 0 0.66 0 1 0 C1 2.64 1 5.28 1 8 C1.66 8 2.32 8 3 8 C3 8.99 3 9.98 3 11 C2.01 11 1.02 11 0 11 C0 7.37 0 3.74 0 0 Z " fill="#B0B4D7" transform="translate(788,1103)"/>
<path d="M0 0 C1.98 0 3.96 0 6 0 C5.01 0.33 4.02 0.66 3 1 C3 3.31 3 5.62 3 8 C2.67 8 2.34 8 2 8 C2 6.35 2 4.7 2 3 C1.34 3 0.68 3 0 3 C0 2.01 0 1.02 0 0 Z " fill="#998DBE" transform="translate(591,563)"/>
<path d="M0 0 C2.31 1.98 4.62 3.96 7 6 C6.01 7.485 6.01 7.485 5 9 C4.16094435 7.87926138 3.32892169 6.75325453 2.5 5.625 C2.0359375 4.99851562 1.571875 4.37203125 1.09375 3.7265625 C0 2 0 2 0 0 Z " fill="#562A52" transform="translate(693,438)"/>
<path d="M0 0 C2.31 0 4.62 0 7 0 C7 0.99 7 1.98 7 3 C4.36 2.67 1.72 2.34 -1 2 C-0.67 1.34 -0.34 0.68 0 0 Z " fill="#F248BD" transform="translate(442,315)"/>
</svg>
